# xmcd
#
# Track frame offsets:
#	150
#	12897
#	24389
#	38091
#	51488
#	63286
#	74499
#	86620
#	98590
#	112584
#	124923
#	136303
#	149236
#	161767
#	174105
#	185747
#	197574
#	209857
#	222225
#	233097
#	245109
#
# Disc length: 3432 seconds
#
# Revision: 1
# Processed by: cddbd v1.5.1PL2 Copyright (c) Steve Scherf et al.
# Submitted via: audiograbber 1.83.01
#
DISCID=370d6615
DTITLE=Various Artist - (IEDS10001-7) Cradle Of Country and Western Music
DYEAR=1955
DGENRE=Country
TTITLE0=Bill Haley - Behind The Eight Ball
TTITLE1=Chet Atkins - Canned Heat
TTITLE2=Tennessee Ernie Ford - Mule Train
TTITLE3=jimmie Rodgers - Blue Yodel No. 8
TTITLE4=Hank Williams - Lomg Gone Lonesome Blues
TTITLE5=Lone Star Playboys - Steel Guitar Bounce
TTITLE6=Monroe Brothers - All The Good Times
TTITLE7=Jesse James - Darling I Don´t Understand
TTITLE8=Tommy Duncan - Gamblin´ Polkadot Blues
TTITLE9=Jimmie Widener - I´ll Be Satisfied
TTITLE10=Jimmy Wakely - Oklahoma Blues
TTITLE11=Johnny Lee Wills - Rag Mop
TTITLE12=George Morgan - Room Full Of Roses
TTITLE13=Floyd Tillman - Slippin´ Around
TTITLE14=Pee Wee King - Ten Gallon Boogie
TTITLE15=Ernest Tubb - Walkin´ The Floor Over You
TTITLE16=Rip Ramsky - Wanderer´s Swing
TTITLE17=Texas Top Hands - You Can´t Have Your Cake
TTITLE18=Gene A - You Are My Sunshine
TTITLE19=Shelley Lee Alley - Women Women Women
TTITLE20=Renfro Valley Boys - Who´s Gonna Shoe Your Pretty Little Feet
EXTD=
EXTT0=
EXTT1=
EXTT2=
EXTT3=
EXTT4=
EXTT5=
EXTT6=
EXTT7=
EXTT8=
EXTT9=
EXTT10=
EXTT11=
EXTT12=
EXTT13=
EXTT14=
EXTT15=
EXTT16=
EXTT17=
EXTT18=
EXTT19=
EXTT20=
PLAYORDER=
